<svg width="26" height="26" viewBox="0 0 26 26" fill="none" xmlns="http://www.w3.org/2000/svg">
<g id="wpf:online">
<path id="Vector" d="M20.281 4.063C19.9906 4.08561 19.7131 4.19228 19.4823 4.36998C19.2515 4.54768 19.0775 4.78873 18.9814 5.0637C18.8853 5.33866 18.8714 5.63565 18.9413 5.91841C19.0112 6.20117 19.1619 6.45746 19.375 6.656C20.209 7.48832 20.8702 8.47727 21.3207 9.56599C21.7712 10.6547 22.002 11.8218 22 13C22.0014 14.1781 21.7702 15.345 21.3198 16.4336C20.8693 17.5223 20.2084 18.5113 19.375 19.344C19.2302 19.4823 19.1144 19.6482 19.0346 19.8319C18.9548 20.0156 18.9124 20.2134 18.9101 20.4137C18.9078 20.6139 18.9456 20.8126 19.0212 20.9981C19.0967 21.1836 19.2086 21.3521 19.3503 21.4937C19.4919 21.6354 19.6604 21.7473 19.8459 21.8228C20.0313 21.8984 20.2301 21.9362 20.4303 21.9339C20.6306 21.9316 20.8284 21.8892 21.0121 21.8094C21.1958 21.7296 21.3617 21.6138 21.5 21.469C23.7417 19.2205 25.0005 16.175 25.0005 13C25.0005 9.82497 23.7417 6.77945 21.5 4.531C21.3629 4.38606 21.1983 4.26993 21.0158 4.1894C20.8332 4.10886 20.6365 4.06555 20.437 4.062C20.385 4.05929 20.333 4.05929 20.281 4.062V4.063ZM5.375 4.093C5.04257 4.13709 4.73451 4.29129 4.5 4.531C2.25829 6.77945 0.999473 9.82497 0.999473 13C0.999473 16.175 2.25829 19.2205 4.5 21.469C4.63833 21.6138 4.80421 21.7296 4.9879 21.8094C5.17159 21.8892 5.36939 21.9316 5.56966 21.9339C5.76994 21.9362 5.96865 21.8984 6.15413 21.8228C6.33961 21.7473 6.50812 21.6354 6.64974 21.4937C6.79137 21.3521 6.90326 21.1836 6.97884 20.9981C7.05442 20.8126 7.09216 20.6139 7.08986 20.4137C7.08755 20.2134 7.04524 20.0156 6.96542 19.8319C6.88559 19.6482 6.76985 19.4823 6.625 19.344C5.79103 18.5117 5.12979 17.5227 4.6793 16.434C4.22882 15.3453 3.99796 14.1782 4 13C3.99861 11.8218 4.22977 10.655 4.68022 9.56638C5.13068 8.47774 5.79156 7.48871 6.625 6.656C6.85175 6.43579 7.00315 6.14958 7.05757 5.83822C7.112 5.52686 7.06668 5.20626 6.92808 4.92219C6.78948 4.63811 6.56469 4.40508 6.28578 4.25635C6.00688 4.10763 5.68812 4.0498 5.375 4.093ZM9.188 7.406C8.85911 7.44136 8.55114 7.58445 8.312 7.813C7.5863 8.46862 7.00573 9.26876 6.60756 10.162C6.2094 11.0553 6.00245 12.022 6 13C6 15.048 6.87 16.91 8.281 18.188C8.42677 18.3214 8.59737 18.4247 8.78308 18.4921C8.96878 18.5595 9.16595 18.5897 9.36332 18.581C9.56069 18.5722 9.7544 18.5246 9.93339 18.441C10.1124 18.3573 10.2731 18.2393 10.4065 18.0935C10.5399 17.9477 10.6432 17.7771 10.7106 17.5914C10.778 17.4057 10.8082 17.2085 10.7995 17.0112C10.7907 16.8138 10.7431 16.6201 10.6595 16.4411C10.5758 16.2621 10.4578 16.1014 10.312 15.968C9.89686 15.5934 9.56542 15.1354 9.33934 14.624C9.11326 14.1125 8.99763 13.5592 9 13C8.99793 12.4406 9.11379 11.8871 9.34003 11.3755C9.56626 10.864 9.89779 10.4058 10.313 10.031C10.5526 9.82251 10.7199 9.54334 10.7907 9.23369C10.8615 8.92404 10.8322 8.59991 10.707 8.30799C10.5818 8.01607 10.3671 7.77144 10.094 7.60934C9.8208 7.44724 9.50422 7.37604 9.188 7.406ZM16.594 7.406C16.2965 7.4224 16.0107 7.52702 15.7729 7.70651C15.5351 7.88601 15.3561 8.13226 15.2588 8.41385C15.1615 8.69545 15.1503 8.99965 15.2265 9.28766C15.3028 9.57567 15.4631 9.83444 15.687 10.031C16.1025 10.4056 16.4342 10.8637 16.6604 11.3753C16.8867 11.887 17.0024 12.4406 17 13C17.0021 13.5594 16.8862 14.1129 16.66 14.6245C16.4337 15.136 16.1022 15.5942 15.687 15.969C15.5199 16.0938 15.3806 16.2521 15.2781 16.4338C15.1756 16.6155 15.1122 16.8166 15.0918 17.0242C15.0714 17.2318 15.0945 17.4414 15.1597 17.6396C15.2249 17.8377 15.3307 18.0201 15.4704 18.1751C15.61 18.33 15.7805 18.4541 15.9708 18.5395C16.1612 18.6248 16.3672 18.6696 16.5758 18.6708C16.7844 18.672 16.991 18.6297 17.1823 18.5466C17.3737 18.4634 17.5455 18.3413 17.687 18.188C18.413 17.5323 18.9938 16.7321 19.3922 15.8386C19.7905 14.9452 19.9976 13.9782 20 13C20.0037 12.0238 19.8026 11.0577 19.4097 10.1641C19.0168 9.27045 18.4409 8.46917 17.719 7.812C17.5694 7.67078 17.3923 7.56187 17.1987 7.49202C17.0052 7.42218 16.7993 7.39289 16.594 7.406ZM13 11.188C12.6417 11.1882 12.2914 11.2946 11.9936 11.4939C11.6957 11.6931 11.4636 11.9761 11.3266 12.3073C11.1897 12.6384 11.1539 13.0027 11.2239 13.3541C11.294 13.7055 11.4666 14.0283 11.7201 14.2816C11.9735 14.5349 12.2964 14.7074 12.6479 14.7773C12.9993 14.8471 13.3636 14.8111 13.6947 14.674C14.0257 14.5368 14.3086 14.3045 14.5077 14.0066C14.7068 13.7086 14.813 13.3583 14.813 13C14.8134 12.7618 14.7668 12.5259 14.6758 12.3057C14.5848 12.0856 14.4513 11.8856 14.2829 11.7171C14.1144 11.5487 13.9144 11.4152 13.6943 11.3242C13.4741 11.2332 13.2382 11.1876 13 11.188Z" fill="black" style="fill:black;fill-opacity:1;"/>
</g>
</svg>
