<svg width="29" height="29" viewBox="0 0 29 29" fill="none" xmlns="http://www.w3.org/2000/svg">
<g id="fluent:people-community-16-regular">
<path id="Vector" d="M5.4375 5.4375C5.4375 4.47609 5.81942 3.55406 6.49924 2.87424C7.17906 2.19442 8.10109 1.8125 9.0625 1.8125C10.0239 1.8125 10.9459 2.19442 11.6258 2.87424C12.3056 3.55406 12.6875 4.47609 12.6875 5.4375C12.6875 6.39891 12.3056 7.32094 11.6258 8.00076C10.9459 8.68058 10.0239 9.0625 9.0625 9.0625C8.10109 9.0625 7.17906 8.68058 6.49924 8.00076C5.81942 7.32094 5.4375 6.39891 5.4375 5.4375ZM9.0625 3.625C8.5818 3.625 8.12078 3.81596 7.78087 4.15587C7.44096 4.49578 7.25 4.95679 7.25 5.4375C7.25 5.9182 7.44096 6.37922 7.78087 6.71913C8.12078 7.05904 8.5818 7.25 9.0625 7.25C9.5432 7.25 10.0042 7.05904 10.3441 6.71913C10.684 6.37922 10.875 5.9182 10.875 5.4375C10.875 4.95679 10.684 4.49578 10.3441 4.15587C10.0042 3.81596 9.5432 3.625 9.0625 3.625ZM17.7244 8.3085C17.3447 8.01885 17.026 7.65702 16.7865 7.2438C16.547 6.83058 16.3916 6.37411 16.3291 5.90063C16.2666 5.42714 16.2983 4.94598 16.4223 4.48478C16.5464 4.02358 16.7603 3.59143 17.0519 3.21318C17.3435 2.83492 17.7069 2.51801 18.1213 2.28065C18.5358 2.0433 18.993 1.89017 19.4668 1.83008C19.9406 1.76999 20.4216 1.80411 20.8822 1.93049C21.3427 2.05687 21.7738 2.27301 22.1506 2.5665C22.8924 3.15992 23.3717 4.02084 23.4852 4.96402C23.5987 5.9072 23.3375 6.85726 22.7576 7.60977C22.1778 8.36229 21.3258 8.85712 20.3848 8.98779C19.4438 9.11847 18.4874 8.87454 17.7244 8.3085ZM19.9375 3.625C19.4568 3.625 18.9958 3.81596 18.6559 4.15587C18.316 4.49578 18.125 4.95679 18.125 5.4375C18.125 5.9182 18.316 6.37922 18.6559 6.71913C18.9958 7.05904 19.4568 7.25 19.9375 7.25C20.4182 7.25 20.8792 7.05904 21.2191 6.71913C21.559 6.37922 21.75 5.9182 21.75 5.4375C21.75 4.95679 21.559 4.49578 21.2191 4.15587C20.8792 3.81596 20.4182 3.625 19.9375 3.625ZM4.53125 10.875H9.37063C9.17125 11.4423 9.0625 12.0531 9.0625 12.6875H4.53125C4.2909 12.6875 4.06039 12.783 3.89043 12.9529C3.72048 13.1229 3.625 13.3534 3.625 13.5938C3.625 15.0746 4.21406 16.1729 5.14388 16.9197C5.57162 17.2641 6.08456 17.5414 6.66456 17.7444C6.23864 18.1971 5.91042 18.7326 5.70031 19.3176C5.09192 19.0732 4.52227 18.7417 4.00925 18.3334C2.64625 17.2369 1.8125 15.6165 1.8125 13.5938C1.8125 12.8727 2.09894 12.1812 2.6088 11.6713C3.11867 11.1614 3.81019 10.875 4.53125 10.875ZM11.3608 10.875C10.88 11.7081 10.75 12.698 10.9991 13.6269C11.2483 14.5559 11.8563 15.3479 12.6893 15.8286C13.5224 16.3093 14.5123 16.4394 15.4412 16.1902C16.3702 15.941 17.1622 15.3331 17.6429 14.5C18.1236 13.6669 18.2537 12.677 18.0045 11.7481C17.7554 10.8191 17.1474 10.0271 16.3143 9.54644C15.4813 9.06573 14.4914 8.93565 13.5624 9.1848C12.6334 9.43396 11.8415 10.0419 11.3608 10.875ZM14.094 10.9203C14.3596 10.8603 14.6352 10.8607 14.9006 10.9216C15.166 10.9824 15.4143 11.102 15.6273 11.2716C15.8402 11.4413 16.0123 11.6565 16.1309 11.9016C16.2495 12.1467 16.3116 12.4152 16.3125 12.6875C16.3124 13.0285 16.216 13.3626 16.0345 13.6513C15.853 13.9401 15.5938 14.1717 15.2865 14.3197C14.9793 14.4677 14.6365 14.526 14.2976 14.4879C13.9587 14.4498 13.6375 14.3169 13.3707 14.1044C13.104 13.892 12.9026 13.6085 12.7897 13.2867C12.6768 12.9649 12.657 12.6178 12.7325 12.2853C12.8081 11.9527 12.9759 11.6482 13.2167 11.4068C13.4576 11.1653 13.7616 10.9967 14.094 10.9203ZM23.8561 16.9197C23.4284 17.2641 22.9154 17.5414 22.3354 17.7444C22.7607 18.1973 23.0883 18.7328 23.2979 19.3176C23.9141 19.0657 24.4851 18.7376 24.9907 18.3334C26.3538 17.2369 27.1875 15.6165 27.1875 13.5938C27.1875 12.8727 26.9011 12.1812 26.3912 11.6713C25.8813 11.1614 25.1898 10.875 24.4688 10.875H19.6294C19.8288 11.4423 19.9375 12.0531 19.9375 12.6875H24.4688C24.7091 12.6875 24.9396 12.783 25.1096 12.9529C25.2795 13.1229 25.375 13.3534 25.375 13.5938C25.375 15.0746 24.7859 16.1729 23.8561 16.9197ZM19.0312 18.125C19.7523 18.125 20.4438 18.4114 20.9537 18.9213C21.4636 19.4312 21.75 20.1227 21.75 20.8438C21.75 22.8665 20.9181 24.4869 19.5532 25.5834C18.2102 26.6619 16.4086 27.1875 14.5 27.1875C12.5914 27.1875 10.7898 26.6619 9.44675 25.5834C8.08375 24.4869 7.25 22.8665 7.25 20.8438C7.24904 20.4865 7.31871 20.1325 7.455 19.8022C7.5913 19.4719 7.79152 19.1718 8.04417 18.9192C8.29682 18.6665 8.59691 18.4663 8.9272 18.33C9.25748 18.1937 9.61145 18.124 9.96875 18.125H19.0312ZM19.0312 19.9375H9.96875C9.7284 19.9375 9.49789 20.033 9.32793 20.2029C9.15798 20.3729 9.0625 20.6034 9.0625 20.8438C9.0625 22.3246 9.65156 23.4229 10.5814 24.1697C11.5347 24.9346 12.905 25.375 14.5 25.375C16.095 25.375 17.4652 24.9346 18.4186 24.1697C19.3484 23.4229 19.9375 22.3246 19.9375 20.8438C19.9375 20.6034 19.842 20.3729 19.6721 20.2029C19.5021 20.033 19.2716 19.9375 19.0312 19.9375Z" fill="black" style="fill:black;fill-opacity:1;"/>
</g>
</svg>
